<?xml version="1.0" standalone="no"?>
<!DOCTYPE svg PUBLIC "-//W3C//DTD SVG 20010904//EN"
 "http://www.w3.org/TR/2001/REC-SVG-20010904/DTD/svg10.dtd">
<svg version="1.0" xmlns="http://www.w3.org/2000/svg"
 width="517.000000pt" height="113.000000pt" viewBox="0 0 517.000000 113.000000"
 preserveAspectRatio="xMidYMid meet">

<g transform="translate(0.000000,113.000000) scale(0.100000,-0.100000)"
fill="#000000" stroke="none">
<path d="M30 560 l0 -550 165 0 165 0 0 58 c1 213 178 413 398 447 l42 7 0
-256 0 -256 165 0 165 0 0 550 0 550 -550 0 -550 0 0 -550z m1060 0 l0 -520
-130 0 -130 0 0 260 c0 295 10 269 -91 250 -209 -39 -381 -221 -412 -434 l-11
-76 -128 0 -128 0 0 520 0 520 515 0 515 0 0 -520z"/>
<path d="M3890 655 l0 -75 -40 0 c-33 0 -40 -3 -40 -20 0 -17 7 -20 40 -20
l40 0 0 -71 c0 -69 11 -109 30 -109 6 0 10 41 10 95 l0 95 40 0 c34 0 40 3 40
21 0 20 -4 21 -40 15 -39 -6 -40 -5 -40 22 0 63 -13 122 -26 122 -11 0 -14
-18 -14 -75z"/>
<path d="M2500 682 c0 -15 7 -58 15 -97 13 -64 13 -71 -3 -88 -16 -18 -16 -20
1 -32 11 -8 17 -26 17 -54 0 -30 4 -41 15 -41 11 0 15 11 15 43 0 67 12 76
125 93 122 18 135 22 135 39 0 10 -8 13 -27 10 -16 -2 -72 -12 -126 -21 -54
-9 -101 -14 -105 -10 -3 4 -6 30 -7 58 0 49 2 52 30 60 17 5 77 11 135 14 124
7 132 8 124 29 -8 19 -54 19 -164 0 -115 -20 -136 -20 -143 5 -8 31 -37 25
-37 -8z"/>
<path d="M3732 698 c7 -19 38 -22 38 -4 0 10 -9 16 -21 16 -12 0 -19 -5 -17
-12z"/>
<path d="M1310 658 c0 -15 9 -18 61 -18 l60 0 -6 -87 c-3 -49 -8 -110 -11
-136 -5 -46 -4 -48 18 -45 22 3 23 8 31 128 5 79 12 127 20 132 6 4 45 8 85 8
62 0 72 2 72 18 0 15 -15 17 -165 18 -153 0 -165 -1 -165 -18z"/>
<path d="M3472 628 c-8 -8 -12 -54 -12 -130 0 -111 1 -118 20 -118 18 0 20 7
20 78 l0 78 38 22 c21 12 57 24 80 28 l42 7 0 -89 c0 -98 7 -134 24 -134 8 0
10 33 6 116 -4 99 -8 118 -24 130 -28 20 -47 18 -110 -15 l-56 -30 0 29 c0 33
-12 44 -28 28z"/>
<path d="M3156 621 c-6 -9 9 -176 20 -228 3 -15 12 -23 24 -23 18 0 20 5 14
54 -9 79 -1 101 52 132 38 22 53 26 99 22 53 -4 55 -4 55 20 0 24 -2 24 -59
20 -37 -3 -78 -14 -109 -30 l-50 -26 -9 31 c-9 32 -27 45 -37 28z"/>
<path d="M4320 600 c0 -16 5 -74 11 -130 11 -89 14 -100 32 -100 18 0 19 5 13
63 -7 59 -5 66 19 95 33 39 84 56 147 49 47 -6 49 -5 46 16 -3 20 -8 22 -64
21 -47 -1 -73 -7 -109 -27 -26 -15 -49 -27 -51 -27 -2 0 -4 10 -4 23 0 23 -17
47 -32 47 -4 0 -8 -13 -8 -30z"/>
<path d="M1739 597 c-78 -52 -105 -149 -55 -196 48 -46 173 -34 221 19 27 29
15 32 -43 10 -66 -25 -123 -26 -145 -2 -40 44 -5 70 97 74 86 3 104 15 93 59
-7 28 -62 59 -106 59 -15 0 -43 -10 -62 -23z m127 -22 c19 -15 19 -15 0 -30
-25 -19 -150 -21 -144 -2 6 17 68 47 99 47 14 0 34 -7 45 -15z"/>
<path d="M3740 499 c0 -118 0 -120 22 -117 21 3 22 6 19 113 -3 117 -4 125
-27 125 -11 0 -14 -22 -14 -121z"/>
<path d="M4705 606 c-92 -42 -123 -173 -52 -216 53 -32 158 -19 207 25 32 29
12 36 -42 14 -67 -26 -135 -23 -155 8 -13 19 -12 24 6 42 18 18 33 21 100 21
85 0 105 10 99 51 -7 50 -103 83 -163 55z m106 -26 c26 -14 24 -36 -3 -44 -36
-9 -126 -7 -133 4 -7 12 62 49 93 50 13 0 32 -5 43 -10z"/>
<path d="M2065 592 c-65 -31 -89 -64 -89 -122 0 -37 5 -56 20 -71 44 -44 158
-32 210 22 39 41 45 115 12 153 -32 37 -96 45 -153 18z m129 -34 c43 -61 -1
-139 -85 -152 -66 -10 -99 5 -99 45 0 75 55 128 132 129 27 0 41 -6 52 -22z"/>
<path d="M4985 590 c-43 -22 -75 -54 -75 -76 0 -8 9 -23 20 -34 19 -19 28 -20
96 -14 70 6 76 6 72 -12 -2 -10 -27 -31 -58 -47 -57 -29 -74 -47 -45 -47 47 0
155 80 155 115 0 31 -33 38 -117 25 -74 -12 -92 -5 -74 29 20 36 68 54 128 48
48 -5 53 -4 53 14 0 17 -7 19 -57 19 -37 -1 -73 -8 -98 -20z"/>
<path d="M2869 579 c-7 -14 -9 -47 -4 -95 6 -64 10 -77 33 -95 22 -17 35 -19
72 -14 24 4 57 13 72 21 34 18 35 18 41 -6 3 -11 10 -20 16 -20 14 0 15 184 1
211 -20 37 -30 19 -30 -55 0 -68 -2 -75 -26 -91 -31 -20 -84 -30 -118 -21 -33
8 -42 55 -22 120 8 27 13 53 10 58 -10 15 -33 8 -45 -13z"/>
<path d="M4034 586 c-3 -9 -4 -52 -2 -96 4 -98 17 -115 86 -114 26 0 62 8 81
18 32 17 33 17 48 -3 29 -42 36 -25 30 77 -6 105 -12 132 -32 132 -9 0 -12
-19 -11 -72 1 -71 1 -72 -33 -95 -40 -27 -112 -31 -131 -8 -9 10 -10 31 -6 68
13 94 12 101 -7 105 -9 2 -20 -4 -23 -12z"/>
</g>
</svg>
